<?xml version="1.0" encoding="utf-8"?>
<!-- Generator: Adobe Illustrator 19.1.0, SVG Export Plug-In . SVG Version: 6.00 Build 0)  -->
<svg version="1.1" id="Layer_1" xmlns="http://www.w3.org/2000/svg" xmlns:xlink="http://www.w3.org/1999/xlink" x="0px" y="0px"
	 viewBox="84.3 155.8 147 95" style="enable-background:new 84.3 155.8 147 95;" xml:space="preserve">
<style type="text/css">
	.st0{fill:none;}
	.st1{fill:#E4F1FD;}
	.st2{fill:#ADD6FA;}
	.st3{fill:#FFFFFF;}
	.st4{fill:url(#SVGID_1_);}
	.st5{fill:url(#SVGID_2_);}
</style>
<pattern  x="-58" y="347" width="16" height="17.9" patternUnits="userSpaceOnUse" id="Unnamed_Pattern" viewBox="0 -17.9 16 17.9" style="overflow:visible;">
	<g>
		<polygon class="st0" points="0,0 16,0 16,-17.9 0,-17.9 		"/>
		<g>
			<polygon class="st0" points="0,-17.9 16,-17.9 16,0 0,0 			"/>
			<polygon class="st1" points="0,-17.9 16,-17.9 16,0 0,0 			"/>
		</g>
	</g>
</pattern>
<pattern  x="-58" y="347" width="16" height="17.9" patternUnits="userSpaceOnUse" id="Unnamed_Pattern_8" viewBox="0 -17.9 16 17.9" style="overflow:visible;">
	<g>
		<polygon class="st0" points="0,0 16,0 16,-17.9 0,-17.9 		"/>
		<g>
			<polygon class="st0" points="0,-17.9 16,-17.9 16,0 0,0 			"/>
			<polygon class="st2" points="0,-17.9 16,-17.9 16,0 0,0 			"/>
		</g>
	</g>
</pattern>
<g>
	<g>
		<polygon class="st3" points="181.9,249.1 158.9,249.1 161.2,225 179.6,225 		"/>
		<path d="M181.9,250.5L181.9,250.5h-23c-0.4,0-0.8-0.2-1-0.5c-0.3-0.3-0.4-0.7-0.4-1.1l2.3-24.1c0.1-0.7,0.7-1.3,1.4-1.3h18.4
			c0.7,0,1.3,0.6,1.4,1.3l2.3,23.9c0.1,0.2,0.1,0.3,0.1,0.4C183.4,249.9,182.8,250.5,181.9,250.5z M160.4,247.7h20l-2-21.3h-15.9
			L160.4,247.7z"/>
	</g>
	<g>
		<line class="st0" x1="148.2" y1="249.3" x2="192.6" y2="249.3"/>
		<path d="M192.6,250.7h-44.5c-0.8,0-1.4-0.6-1.4-1.4c0-0.8,0.6-1.4,1.4-1.4h44.5c0.8,0,1.4,0.6,1.4,1.4
			C194.1,250.1,193.4,250.7,192.6,250.7z"/>
	</g>
	<g>
		<g>
			<rect x="115" y="157.2" class="st3" width="108.7" height="73.3"/>
			<path d="M115,232c-0.4,0-0.7-0.2-1-0.4c-0.3-0.3-0.4-0.6-0.4-1v-73.4c0-0.8,0.6-1.4,1.4-1.4h108.7c0.8,0,1.4,0.6,1.4,1.4v73.3
				c0,0.8-0.6,1.4-1.4,1.4L115,232z M116.5,158.7v70.5h105.9v-70.5H116.5z"/>
		</g>
		<g>
			<polygon class="st3" points="217.4,224.2 121.2,224.2 121.3,163.5 217.5,163.5 			"/>
			<path d="M217.4,225.7h-96.2c-0.4,0-0.7-0.2-1-0.4c-0.3-0.3-0.4-0.6-0.4-1l0.1-60.7c0-0.8,0.6-1.4,1.4-1.4h96.2
				c0.4,0,0.7,0.2,1,0.4c0.3,0.3,0.4,0.6,0.4,1l-0.2,60.7C218.8,225,218.2,225.7,217.4,225.7z M122.6,222.9H216l0.1-57.9h-93.4
				L122.6,222.9z"/>
		</g>
	</g>
	<g>
		<rect x="85.7" y="182.1" class="st3" width="47.1" height="67.3"/>
		<path d="M132.8,250.8H85.7c-0.8,0-1.4-0.6-1.4-1.4v-67.3c0-0.8,0.6-1.4,1.4-1.4h47.1c0.8,0,1.4,0.6,1.4,1.4v67.3
			C134.2,250.1,133.6,250.8,132.8,250.8z M87.1,248h44.3v-64.5H87.1V248z"/>
	</g>
	<g>
		<rect x="92.1" y="191.5" class="st3" width="34.3" height="47.1"/>
		<path d="M126.4,240H92.1c-0.8,0-1.4-0.6-1.4-1.4v-47.1c0-0.8,0.6-1.4,1.4-1.4h34.3c0.8,0,1.4,0.6,1.4,1.4v47.1
			C127.8,239.4,127.2,240,126.4,240z M93.4,237.2H125v-44.3H93.4V237.2z"/>
	</g>
	<g>
		<line class="st0" x1="107.9" y1="244.1" x2="110.6" y2="244.1"/>
		<path d="M110.6,245.5h-2.7c-0.8,0-1.4-0.6-1.4-1.4c0-0.8,0.6-1.4,1.4-1.4h2.7c0.8,0,1.4,0.6,1.4,1.4
			C112,244.9,111.4,245.5,110.6,245.5z"/>
	</g>
	<g>
		<g>
			<pattern  id="SVGID_1_" xlink:href="#Unnamed_Pattern_8" patternTransform="matrix(1 0 0 -1 10 -16794.7988)">
			</pattern>
			<path class="st4" d="M174.1,192.6h-9.3l-1.7,4.9h-5.6l9.1-24h6.2l9,24h-5.8L174.1,192.6z M166.6,187.7h5.8l-2.9-8.3L166.6,187.7z
				"/>
			<path d="M181.7,198.9L181.7,198.9h-5.8c-0.6,0-1.1-0.4-1.3-0.9l-1.4-3.9h-7.3l-1.4,3.9c-0.2,0.6-0.7,0.9-1.3,0.9h-5.6
				c-0.5,0-0.9-0.2-1.2-0.6c-0.3-0.4-0.3-0.9-0.2-1.3l9-24.1c0.2-0.6,0.7-0.9,1.3-0.9h6.2c0.6,0,1.1,0.4,1.3,0.9l8.9,23.7
				c0.2,0.2,0.2,0.5,0.2,0.7C183.1,198.2,182.5,198.9,181.7,198.9z M176.9,196h2.8l-7.9-21.2h-4.2l-8,21.2h2.6l1.4-3.9
				c0.2-0.6,0.7-0.9,1.3-0.9h9.3c0.6,0,1.1,0.4,1.3,0.9L176.9,196z M172.4,189.1h-5.8c-0.5,0-0.9-0.2-1.1-0.6
				c-0.3-0.4-0.3-0.9-0.2-1.3l3-8.3c0.2-0.6,0.7-0.9,1.3-0.9l0,0c0.6,0,1.1,0.4,1.3,1l2.9,8.3c0.2,0.4,0.1,0.9-0.2,1.3
				C173.3,188.9,172.9,189.1,172.4,189.1z M168.6,186.3h1.8l-0.9-2.6L168.6,186.3z"/>
		</g>
	</g>
	<g>
		<g>
			<path class="st3" d="M113.2,214.9H105l-1.5,4.3h-5l8-21.3h5.5l7.9,21.3h-5.2L113.2,214.9z M106.6,210.6h5.2l-2.6-7.4L106.6,210.6
				z"/>
			<path d="M120,220.6C119.9,220.6,119.9,220.6,120,220.6C119.9,220.6,119.9,220.6,120,220.6h-5.2c-0.6,0-1.1-0.4-1.3-0.9l-1.2-3.4
				h-6.2l-1.2,3.4c-0.2,0.6-0.7,0.9-1.3,0.9h-5.1c-0.5,0-0.9-0.2-1.2-0.6c-0.3-0.4-0.3-0.9-0.2-1.3l8-21.3c0.2-0.6,0.7-0.9,1.3-0.9
				l0,0h5.5c0.6,0,1.1,0.4,1.3,0.9l7.8,21c0.2,0.2,0.2,0.5,0.2,0.7C121.4,220,120.8,220.6,120,220.6z M115.8,217.8h2.1l-6.9-18.5
				h-3.5l-7,18.5h1.9l1.2-3.4c0.2-0.6,0.7-0.9,1.3-0.9h8.2c0.6,0,1.1,0.4,1.3,0.9L115.8,217.8z M111.8,212h-5.2
				c-0.5,0-0.9-0.2-1.1-0.6c-0.3-0.4-0.3-0.9-0.2-1.3l2.6-7.4c0.2-0.6,0.7-0.9,1.3-0.9l0,0c0.6,0,1.1,0.4,1.3,1l2.6,7.4
				c0.2,0.4,0.1,0.9-0.2,1.3C112.6,211.7,112.2,212,111.8,212z M108.6,209.1h1.2l-0.6-1.7L108.6,209.1z"/>
		</g>
	</g>
	<g>
		<pattern  id="SVGID_2_" xlink:href="#Unnamed_Pattern" patternTransform="matrix(1 0 0 -1 10 -16794.7988)">
		</pattern>
		<rect x="139" y="205.5" class="st5" width="60.7" height="9.4"/>
		<path d="M199.7,216.4H139c-0.8,0-1.4-0.6-1.4-1.4v-9.4c0-0.8,0.6-1.4,1.4-1.4h60.7c0.8,0,1.4,0.6,1.4,1.4v9.4
			C201.1,215.7,200.5,216.4,199.7,216.4z M140.5,213.5h57.8v-6.6h-57.8V213.5z"/>
	</g>
	<g>
		<line class="st0" x1="98.3" y1="226" x2="120.1" y2="226"/>
		<path d="M120.1,227.4H98.3c-0.8,0-1.4-0.6-1.4-1.4c0-0.8,0.6-1.4,1.4-1.4h21.8c0.8,0,1.4,0.6,1.4,1.4
			C121.5,226.8,120.9,227.4,120.1,227.4z"/>
	</g>
	<g>
		<line class="st0" x1="98.3" y1="232.1" x2="120.1" y2="232.1"/>
		<path d="M120.1,233.6H98.3c-0.8,0-1.4-0.6-1.4-1.4c0-0.8,0.6-1.4,1.4-1.4h21.8c0.8,0,1.4,0.6,1.4,1.4
			C121.5,232.9,120.9,233.6,120.1,233.6z"/>
	</g>
	<g>
		<rect x="206.1" y="207" class="st3" width="23.7" height="42.1"/>
		<path d="M229.8,250.5h-23.7c-0.8,0-1.4-0.6-1.4-1.4v-42.1c0-0.8,0.6-1.4,1.4-1.4h23.7c0.8,0,1.4,0.6,1.4,1.4v42.1
			C231.2,249.9,230.6,250.5,229.8,250.5z M207.5,247.7h20.9v-39.3h-20.9V247.7z"/>
	</g>
	<g>
		<rect x="211.5" y="212.4" class="st3" width="12.9" height="27.1"/>
		<path d="M224.4,240.9h-12.9c-0.8,0-1.4-0.6-1.4-1.4v-27.1c0-0.8,0.6-1.4,1.4-1.4h12.9c0.8,0,1.4,0.6,1.4,1.4v27.1
			C225.9,240.2,225.2,240.9,224.4,240.9z M212.9,238.1H223v-24.2h-10.1V238.1z"/>
	</g>
	<g>
		<line class="st0" x1="216.6" y1="244.4" x2="219.2" y2="244.4"/>
		<path d="M219.2,245.8h-2.7c-0.8,0-1.4-0.6-1.4-1.4c0-0.8,0.6-1.4,1.4-1.4h2.7c0.8,0,1.4,0.6,1.4,1.4
			C220.7,245.2,220.1,245.8,219.2,245.8z"/>
	</g>
	<g>
		<path d="M219.2,222.9h-2.7l-0.5,1.4h-1.6l2.6-7h1.8l2.6,7h-1.7L219.2,222.9z M217.1,221.4h1.7L218,219L217.1,221.4z"/>
	</g>
	<g>
		<line class="st0" x1="215.9" y1="229" x2="220.1" y2="229"/>
		<path d="M220.1,230.4h-4.2c-0.8,0-1.4-0.6-1.4-1.4c0-0.8,0.6-1.4,1.4-1.4h4.2c0.8,0,1.4,0.6,1.4,1.4S220.8,230.4,220.1,230.4z"/>
	</g>
	<g>
		<line class="st0" x1="215.9" y1="233.7" x2="220.1" y2="233.7"/>
		<path d="M220.1,235.1h-4.2c-0.8,0-1.4-0.6-1.4-1.4c0-0.8,0.6-1.4,1.4-1.4h4.2c0.8,0,1.4,0.6,1.4,1.4
			C221.5,234.5,220.8,235.1,220.1,235.1z"/>
	</g>
</g>
</svg>
