<?xml version="1.0" encoding="utf-8"?>
<!-- Generator: Adobe Illustrator 19.1.0, SVG Export Plug-In . SVG Version: 6.00 Build 0)  -->
<svg version="1.1" id="Layer_1" xmlns="http://www.w3.org/2000/svg" xmlns:xlink="http://www.w3.org/1999/xlink" x="0px" y="0px"
	 viewBox="108.8 163.6 97.2 95" style="enable-background:new 108.8 163.6 97.2 95;" xml:space="preserve">
<style type="text/css">
	.st0{fill:none;}
	.st1{fill:#E4F1FD;}
	.st2{fill:#ADD6FA;}
	.st3{fill:url(#SVGID_1_);}
	.st4{fill:url(#SVGID_2_);}
	.st5{fill:url(#SVGID_3_);}
	.st6{fill:url(#SVGID_4_);}
	.st7{fill:url(#SVGID_5_);}
</style>
<pattern  x="-58" y="347" width="16" height="17.9" patternUnits="userSpaceOnUse" id="Unnamed_Pattern" viewBox="0 -17.9 16 17.9" style="overflow:visible;">
	<g>
		<polygon class="st0" points="0,0 16,0 16,-17.9 0,-17.9 		"/>
		<g>
			<polygon class="st0" points="0,-17.9 16,-17.9 16,0 0,0 			"/>
			<polygon class="st1" points="0,-17.9 16,-17.9 16,0 0,0 			"/>
		</g>
	</g>
</pattern>
<pattern  x="-58" y="347" width="16" height="17.9" patternUnits="userSpaceOnUse" id="Unnamed_Pattern_8" viewBox="0 -17.9 16 17.9" style="overflow:visible;">
	<g>
		<polygon class="st0" points="0,0 16,0 16,-17.9 0,-17.9 		"/>
		<g>
			<polygon class="st0" points="0,-17.9 16,-17.9 16,0 0,0 			"/>
			<polygon class="st2" points="0,-17.9 16,-17.9 16,0 0,0 			"/>
		</g>
	</g>
</pattern>
<g>
	<g>
		<path d="M157.4,258.6c-0.8,0-1.4-0.6-1.4-1.4v-8.5l-9.7,9.5c-0.6,0.6-1.4,0.6-2,0c-0.6-0.6-0.6-1.4,0-2l11.7-11.5v-9h-45.7
			c-0.4,0-0.7-0.2-1-0.4c-0.3-0.3-0.4-0.6-0.4-1v-61.1c0-0.8,0.6-1.4,1.4-1.4h5.2c0.1-0.1,0.3-0.1,0.4-0.1L156,166V165
			c0-0.8,0.6-1.4,1.4-1.4c0.8,0,1.4,0.6,1.4,1.4v0.9l40.1,5.7c0.2,0,0.3,0.1,0.4,0.1h5.2c0.8,0,1.4,0.6,1.4,1.4v61.1
			c0,0.8-0.6,1.4-1.4,1.4h-45.7v9l11.7,11.5c0.6,0.6,0.6,1.4,0,2s-1.4,0.6-2,0l-9.7-9.5v8.5C158.8,258,158.2,258.6,157.4,258.6z
			 M111.7,232.9h91.4v-58.2h-91.4L111.7,232.9z M158.8,171.8h20.7l-20.7-2.9V171.8L158.8,171.8z M135.3,171.8H156v-2.9L135.3,171.8z
			"/>
	</g>
	<g>
		<g>
			<pattern  id="SVGID_1_" xlink:href="#Unnamed_Pattern_8" patternTransform="matrix(1 0 0 -1 10 -16779.2148)">
			</pattern>
			<rect x="121.8" y="200.2" class="st3" width="5.1" height="21.4"/>
			<path d="M127,223h-5.1c-0.8,0-1.4-0.6-1.4-1.4v-21.4c0-0.8,0.6-1.4,1.4-1.4h5.1c0.8,0,1.4,0.6,1.4,1.4v21.4
				C128.4,222.4,127.7,223,127,223z M123.3,220.2h2.3v-18.5h-2.3V220.2z"/>
		</g>
		<g>
			<pattern  id="SVGID_2_" xlink:href="#Unnamed_Pattern_8" patternTransform="matrix(1 0 0 -1 10 -16779.2148)">
			</pattern>
			<rect x="131.6" y="185.7" class="st4" width="5.1" height="36"/>
			<path d="M136.8,223h-5.1c-0.4,0-0.7-0.2-1-0.4c-0.3-0.3-0.4-0.6-0.4-1v-36c0-0.8,0.6-1.4,1.4-1.4h5.1c0.4,0,0.7,0.2,1,0.4
				c0.3,0.3,0.4,0.6,0.4,1v36C138.2,222.4,137.6,223,136.8,223z M133.1,220.2h2.3v-33.1h-2.3V220.2z"/>
		</g>
		<g>
			<pattern  id="SVGID_3_" xlink:href="#Unnamed_Pattern_8" patternTransform="matrix(1 0 0 -1 10 -16779.2148)">
			</pattern>
			<rect x="141.4" y="195.4" class="st5" width="5.1" height="26"/>
			<path d="M146.5,222.9h-5.1c-0.4,0-0.7-0.2-1-0.4c-0.3-0.3-0.4-0.6-0.4-1v-26c0-0.4,0.2-0.7,0.4-1c0.3-0.3,0.6-0.4,1-0.4l0,0h5.1
				c0.8,0,1.4,0.6,1.4,1.4v26C148,222.2,147.3,222.9,146.5,222.9z M142.8,220h2.3v-23.2h-2.3V220z"/>
		</g>
	</g>
	<g>
		<g>
			<pattern  id="SVGID_4_" xlink:href="#Unnamed_Pattern" patternTransform="matrix(1 0 0 -1 10 -16779.2148)">
			</pattern>
			<path class="st6" d="M189.1,197c-3-4.6-8.4-7.7-14.4-7.7v16.8L189.1,197z"/>
			<path d="M174.7,207.5c-0.3,0-0.5-0.1-0.7-0.2c-0.5-0.3-0.7-0.7-0.7-1.2v-16.8c0-0.8,0.6-1.4,1.4-1.4c6.3,0,12.1,3.1,15.5,8.4
				c0.2,0.3,0.3,0.7,0.2,1.1c-0.1,0.4-0.3,0.7-0.6,0.9l-14.4,9C175.2,207.4,175,207.5,174.7,207.5z M176.1,190.7v12.7l10.9-6.9
				C184.3,193.3,180.4,191.1,176.1,190.7z"/>
		</g>
		<g>
			<g>
				<pattern  id="SVGID_5_" xlink:href="#Unnamed_Pattern_8" patternTransform="matrix(1 0 0 -1 10 -16779.2148)">
				</pattern>
				<path class="st7" d="M189.1,197l-14.4,9h-17.1c0,9.3,7.6,16.8,17.1,16.8c9.4,0,17.1-7.5,17.1-16.8
					C191.8,202.7,190.8,199.6,189.1,197z"/>
				<path d="M174.7,224.2c-10.2,0-18.5-8.2-18.5-18.2c0-0.8,0.6-1.4,1.4-1.4h16.7l14-8.8c0.7-0.4,1.5-0.2,2,0.4
					c1.9,2.9,2.9,6.3,2.9,9.9C193.2,216.1,184.9,224.2,174.7,224.2z M159.1,207.5c0.7,7.8,7.4,14,15.6,14c8.6,0,15.7-6.9,15.7-15.3
					c0-2.5-0.6-4.9-1.7-7.1l-13.1,8.3c-0.2,0.2-0.5,0.2-0.8,0.2H159.1z"/>
			</g>
			<g>
				<path d="M174.7,207.5h-17.1c-0.8,0-1.4-0.6-1.4-1.4c0-10,8.3-18.2,18.5-18.2c0.8,0,1.4,0.6,1.4,1.4v16.8
					C176.1,206.9,175.5,207.5,174.7,207.5z M159.1,204.6h14.2v-13.9C165.8,191.4,159.8,197.3,159.1,204.6z"/>
			</g>
		</g>
	</g>
</g>
</svg>
