<?xml version="1.0" encoding="utf-8"?>
<!-- Generator: Adobe Illustrator 19.1.0, SVG Export Plug-In . SVG Version: 6.00 Build 0)  -->
<svg version="1.1" id="Layer_1" xmlns="http://www.w3.org/2000/svg" xmlns:xlink="http://www.w3.org/1999/xlink" x="0px" y="0px"
	 viewBox="-90.4 155.4 111.6 95" style="enable-background:new -90.4 155.4 111.6 95;" xml:space="preserve">
<style type="text/css">
	.st0{fill:#FFFFFF;}
	.st1{fill:none;}
	.st2{clip-path:url(#SVGID_2_);}
	.st3{fill:#ADD6FA;}
	.st4{clip-path:url(#SVGID_4_);}
</style>
<g id="Layer_2">
</g>
<g>
	<polygon class="st0" points="-22,248.8 -45,248.8 -42.7,224.6 -24.3,224.6 	"/>
	<path d="M-22,250.2L-22,250.2H-45c-0.4,0-0.8-0.2-1.1-0.5s-0.4-0.7-0.3-1.1l2.3-24.1c0.1-0.7,0.7-1.3,1.4-1.3h18.5
		c0.7,0,1.4,0.6,1.4,1.3l2.3,23.9c0,0.1,0.1,0.2,0.1,0.3C-20.6,249.6-21.2,250.2-22,250.2z M-43.5,247.4h19.9l-2.1-21.2h-15.8
		L-43.5,247.4z"/>
</g>
<g>
	<line class="st1" x1="-55.8" y1="249" x2="-11.3" y2="249"/>
	<path d="M-11.3,250.4h-44.5c-0.8,0-1.5-0.7-1.5-1.5c0-0.8,0.7-1.5,1.5-1.5h44.5c0.8,0,1.5,0.7,1.5,1.5
		C-9.8,249.7-10.5,250.4-11.3,250.4z"/>
</g>
<rect x="-88.9" y="156.9" class="st0" width="108.7" height="73.3"/>
<path d="M19.8,231.7H-88.9c-0.8,0-1.5-0.7-1.5-1.5v-73.3c0-0.8,0.7-1.5,1.5-1.5H19.8c0.4,0,0.7,0.2,1,0.4c0.2,0.2,0.4,0.7,0.4,1
	v73.3C21.3,231,20.6,231.7,19.8,231.7z M-87.4,228.8H18.4v-70.5H-87.4V228.8z"/>
<g>
	<polygon class="st0" points="13.5,223.9 -82.8,223.9 -82.7,163.2 13.6,163.2 	"/>
	<path d="M13.5,225.4h-96.2c-0.4,0-0.7-0.2-1-0.4c-0.3-0.3-0.4-0.7-0.4-1.1l0.1-60.7c0-0.8,0.7-1.4,1.5-1.4h96.2
		c0.4,0,0.7,0.2,1,0.4c0.2,0.2,0.4,0.7,0.4,1L15,223.9C14.9,224.7,14.2,225.4,13.5,225.4z M-81.3,222.5h93.4l0.1-57.8h-93.4
		L-81.3,222.5z"/>
</g>
<g>
	<path d="M-82.8,224.7c-0.4,0-0.9-0.2-1.1-0.6c-0.5-0.7-0.3-1.6,0.2-2.1l2.6-2c0.7-0.5,1.6-0.3,2.1,0.2c0.5,0.7,0.3,1.6-0.2,2.1
		l-2.6,2C-82.1,224.6-82.4,224.7-82.8,224.7z M-75.5,219.3c-0.4,0-0.9-0.2-1.1-0.6c-0.5-0.7-0.3-1.6,0.2-2.1l2.6-2
		c0.7-0.5,1.6-0.3,2.1,0.2c0.5,0.7,0.3,1.6-0.2,2.1l-2.6,2C-74.9,219.2-75.2,219.3-75.5,219.3z M-68.3,213.9c-0.4,0-0.9-0.2-1.1-0.6
		c-0.5-0.7-0.3-1.6,0.2-2.1l2.6-2c0.7-0.5,1.6-0.3,2.1,0.2c0.5,0.7,0.3,1.6-0.2,2.1l-2.6,2C-67.7,213.8-68,213.9-68.3,213.9z
		 M-40.3,209c-0.4,0-0.8-0.2-1.1-0.5c-0.5-0.6-0.4-1.5,0.2-2.1l2.5-2.1c0.6-0.5,1.5-0.4,2.1,0.2c0.5,0.6,0.4,1.5-0.2,2.1l-2.5,2.1
		C-39.6,208.9-39.9,209-40.3,209z M-61.1,208.5c-0.4,0-0.9-0.2-1.1-0.6c-0.5-0.7-0.3-1.6,0.2-2.1l2.6-2c0.7-0.5,1.6-0.3,2.1,0.2
		c0.5,0.7,0.3,1.6-0.2,2.1l-2.6,2C-60.4,208.4-60.8,208.5-61.1,208.5z M-44.6,207.4c-0.3,0-0.7-0.2-1-0.4l-2.5-2.2
		c-0.6-0.6-0.7-1.5-0.1-2.1c0.6-0.6,1.5-0.7,2.1-0.1l2.5,2.2c0.6,0.6,0.7,1.5,0.1,2.1C-43.8,207.2-44.2,207.4-44.6,207.4z
		 M-33.4,203.1c-0.4,0-0.8-0.2-1.1-0.5c-0.5-0.6-0.4-1.5,0.2-2.1l2.5-2.1c0.6-0.5,1.5-0.4,2.1,0.2c0.5,0.6,0.4,1.5-0.2,2.1l-2.5,2.1
		C-32.7,203.1-33,203.1-33.4,203.1z M-53.9,203.1c-0.4,0-0.9-0.2-1.1-0.6c-0.5-0.7-0.3-1.6,0.2-2.1l2.5-1.9c0.6-0.4,1.3-0.4,1.8,0.1
		l0.2,0.2c0.6,0.6,0.7,1.5,0.1,2.1c-0.2,0.2-0.6,0.4-0.9,0.5l-1.8,1.4C-53.2,203-53.6,203.1-53.9,203.1z M-26.5,197.4
		c-0.4,0-0.8-0.2-1.1-0.5c-0.5-0.6-0.4-1.5,0.2-2.1l2.5-2.1c0.6-0.5,1.5-0.4,2.1,0.2c0.5,0.6,0.4,1.5-0.2,2.1l-2.5,2.1
		C-25.8,197.2-26.1,197.4-26.5,197.4z M-19.6,191.6c-0.4,0-0.8-0.2-1.1-0.5c-0.5-0.6-0.4-1.5,0.2-2.1l2.5-2.1
		c0.6-0.5,1.5-0.4,2.1,0.2c0.5,0.6,0.4,1.5-0.2,2.1l-2.5,2.1C-18.9,191.5-19.3,191.6-19.6,191.6z M-12.7,185.8
		c-0.4,0-0.8-0.2-1.1-0.5c-0.5-0.6-0.4-1.5,0.2-2.1l1.6-1.4c0.6-0.5,1.5-0.4,2.1,0.2c0.5,0.6,0.4,1.5-0.2,2.1l-1.6,1.4
		C-12,185.7-12.4,185.8-12.7,185.8z"/>
</g>
<g>
	<path d="M-82.8,213c-0.4,0-0.9-0.2-1.1-0.6c-0.5-0.7-0.3-1.6,0.3-2.1l31.3-23.5c0.6-0.4,1.3-0.4,1.8,0.1l8,6.9l23.4-19.4
		c0.6-0.5,1.5-0.4,2.1,0.2c0.5,0.6,0.4,1.5-0.2,2.1l-24.4,20.2c-0.6,0.4-1.3,0.4-1.9,0l-8.1-7l-30.4,22.8
		C-82.1,212.8-82.4,213-82.8,213z"/>
</g>
<g>
	<g>
		<g>
			<g>
				<defs>
					<polygon id="SVGID_1_" points="-5.1,216.3 -11.6,199 5.7,205.5 -1.6,209 					"/>
				</defs>
				<clipPath id="SVGID_2_">
					<use xlink:href="#SVGID_1_"  style="overflow:visible;"/>
				</clipPath>
				<g class="st2">
					<rect x="-15" y="197.4" class="st1" width="18.5" height="20.8"/>
					<rect x="-15" y="197.4" class="st3" width="18.5" height="20.8"/>
				</g>
			</g>
			<g>
				<defs>
					<polygon id="SVGID_3_" points="-5.1,216.3 -11.6,199 5.7,205.5 -1.6,209 					"/>
				</defs>
				<clipPath id="SVGID_4_">
					<use xlink:href="#SVGID_3_"  style="overflow:visible;"/>
				</clipPath>
				<g class="st4">
					<rect x="3.5" y="197.4" class="st1" width="18.5" height="20.8"/>
					<rect x="3.5" y="197.4" class="st3" width="18.5" height="20.8"/>
				</g>
			</g>
		</g>
		<path d="M-5.1,217.7L-5.1,217.7c-0.7,0-1.1-0.4-1.3-0.9l-6.5-17.3c-0.2-0.5-0.1-1.1,0.3-1.6c0.4-0.4,1-0.5,1.6-0.3l17.3,6.5
			c0.6,0.2,0.9,0.7,0.9,1.3s-0.3,1.1-0.8,1.4l-6.8,3.3l-3.3,6.8C-4.1,217.4-4.6,217.7-5.1,217.7z M-9.2,201.4l4.2,11.2l2.1-4.3
			c0.2-0.3,0.4-0.5,0.7-0.7l4.3-2.1L-9.2,201.4z"/>
	</g>
	<g>
		<path d="M5,216.9c-0.3,0-0.7-0.2-1-0.4l-5.9-5.9c-0.6-0.6-0.6-1.5,0-2.1s1.5-0.6,2.1,0l5.9,5.9c0.6,0.6,0.6,1.5,0,2.1
			C5.8,216.8,5.4,216.9,5,216.9z"/>
	</g>
</g>
</svg>
