<?xml version="1.0" encoding="utf-8"?>
<!-- Generator: Adobe Illustrator 19.1.0, SVG Export Plug-In . SVG Version: 6.00 Build 0)  -->
<svg version="1.1" id="Layer_1" xmlns="http://www.w3.org/2000/svg" xmlns:xlink="http://www.w3.org/1999/xlink" x="0px" y="0px"
	 viewBox="1328.9 154.2 145.2 95" style="enable-background:new 1328.9 154.2 145.2 95;" xml:space="preserve">
<style type="text/css">
	.st0{fill:#FFFFFF;}
	.st1{clip-path:url(#SVGID_2_);}
	.st2{fill:none;}
	.st3{fill:#E4F1FD;}
	.st4{clip-path:url(#SVGID_4_);}
	.st5{clip-path:url(#SVGID_6_);}
	.st6{clip-path:url(#SVGID_8_);}
	.st7{clip-path:url(#SVGID_10_);}
	.st8{fill:#ADD6FA;}
	.st9{clip-path:url(#SVGID_12_);}
	.st10{clip-path:url(#SVGID_14_);}
	.st11{clip-path:url(#SVGID_16_);}
	.st12{clip-path:url(#SVGID_18_);}
	.st13{clip-path:url(#SVGID_20_);}
	.st14{clip-path:url(#SVGID_22_);}
</style>
<g>
	<g>
		<rect x="1330.4" y="155.7" class="st0" width="67.3" height="52.6"/>
		<path d="M1397.7,209.7h-67.3c-0.8,0-1.5-0.6-1.5-1.5v-52.6c0-0.8,0.6-1.5,1.5-1.5h67.3c0.8,0,1.5,0.6,1.5,1.5v52.6
			C1399.1,209.1,1398.5,209.7,1397.7,209.7z M1331.8,206.8h64.4v-49.7h-64.4V206.8z"/>
	</g>
	<g>
		<path d="M1374.8,195.6h-8.4c-0.8,0-1.5-0.6-1.5-1.5s0.6-1.5,1.5-1.5h8.4c0.8,0,1.5,0.6,1.5,1.5S1375.6,195.6,1374.8,195.6z"/>
	</g>
	<g>
		<path d="M1384.3,202.3h-18c-0.8,0-1.5-0.6-1.5-1.5c0-0.8,0.6-1.5,1.5-1.5h18c0.8,0,1.5,0.6,1.5,1.5S1385.1,202.3,1384.3,202.3z"/>
	</g>
	<g>
		<g>
			<g>
				<defs>
					<circle id="SVGID_1_" cx="1349.3" cy="181.9" r="5.1"/>
				</defs>
				<clipPath id="SVGID_2_">
					<use xlink:href="#SVGID_1_"  style="overflow:visible;"/>
				</clipPath>
				<g class="st1">
					<rect x="1336.4" y="156.7" class="st2" width="22.7" height="25.4"/>
					<rect x="1336.4" y="156.7" class="st3" width="22.7" height="25.4"/>
				</g>
			</g>
			<g>
				<defs>
					<circle id="SVGID_3_" cx="1349.3" cy="181.9" r="5.1"/>
				</defs>
				<clipPath id="SVGID_4_">
					<use xlink:href="#SVGID_3_"  style="overflow:visible;"/>
				</clipPath>
				<g class="st4">
					<rect x="1336.4" y="182" class="st2" width="22.7" height="25.4"/>
					<rect x="1336.4" y="182" class="st3" width="22.7" height="25.4"/>
				</g>
			</g>
		</g>
		<path d="M1349.3,188.5c-3.6,0-6.6-3-6.6-6.6s3-6.6,6.6-6.6s6.6,3,6.6,6.6S1352.9,188.5,1349.3,188.5z M1349.3,178.3
			c-2,0-3.7,1.6-3.7,3.7s1.6,3.7,3.7,3.7c2,0,3.7-1.6,3.7-3.7S1351.3,178.3,1349.3,178.3z"/>
	</g>
	<g>
		<g>
			<g>
				<defs>
					<path id="SVGID_5_" d="M1360,197.9c0,0,0-6.2-6.2-6.2h-9.1c0,0-6.2,0-6.2,6.2v3h21.6L1360,197.9L1360,197.9z"/>
				</defs>
				<clipPath id="SVGID_6_">
					<use xlink:href="#SVGID_5_"  style="overflow:visible;"/>
				</clipPath>
				<g class="st5">
					<rect x="1359" y="182" class="st2" width="22.7" height="25.4"/>
					<rect x="1359" y="182" class="st3" width="22.7" height="25.4"/>
				</g>
			</g>
			<g>
				<defs>
					<path id="SVGID_7_" d="M1360,197.9c0,0,0-6.2-6.2-6.2h-9.1c0,0-6.2,0-6.2,6.2v3h21.6L1360,197.9L1360,197.9z"/>
				</defs>
				<clipPath id="SVGID_8_">
					<use xlink:href="#SVGID_7_"  style="overflow:visible;"/>
				</clipPath>
				<g class="st6">
					<rect x="1336.4" y="182" class="st2" width="22.7" height="25.4"/>
					<rect x="1336.4" y="182" class="st3" width="22.7" height="25.4"/>
				</g>
			</g>
		</g>
		<path d="M1360,202.4h-21.6c-0.8,0-1.5-0.6-1.5-1.5v-3c0-4,2.1-5.9,3.9-6.8c1.8-0.9,3.6-0.9,3.8-0.9h9.1c4,0,5.9,2.1,6.8,3.9
			c0.9,1.8,0.9,3.6,0.9,3.8v3C1361.4,201.7,1360.8,202.4,1360,202.4z M1339.9,199.4h18.7v-1.6c0,0,0-1.3-0.7-2.5
			c-0.8-1.5-2.1-2.2-4.1-2.2h-9.1c0,0-1.3,0-2.5,0.7c-1.5,0.8-2.2,2.1-2.2,4.1L1339.9,199.4L1339.9,199.4z"/>
	</g>
	<g>
		<g>
			<g>
				<defs>
					<path id="SVGID_9_" d="M1369.7,186.5v-7.6h-6.8c0,0-2.4,0-2.4-2.3v-10.1c0,0,0-2.3,2.4-2.3h24c0,0,2.4,0,2.4,2.3v10.1
						c0,0,0,2.3-2.4,2.3h-10.1L1369.7,186.5z"/>
				</defs>
				<clipPath id="SVGID_10_">
					<use xlink:href="#SVGID_9_"  style="overflow:visible;"/>
				</clipPath>
				<g class="st7">
					<rect x="1331" y="150.1" class="st2" width="29.6" height="33.2"/>
					<rect x="1331" y="150.1" class="st8" width="29.6" height="33.2"/>
				</g>
			</g>
			<g>
				<defs>
					<path id="SVGID_11_" d="M1369.7,186.5v-7.6h-6.8c0,0-2.4,0-2.4-2.3v-10.1c0,0,0-2.3,2.4-2.3h24c0,0,2.4,0,2.4,2.3v10.1
						c0,0,0,2.3-2.4,2.3h-10.1L1369.7,186.5z"/>
				</defs>
				<clipPath id="SVGID_12_">
					<use xlink:href="#SVGID_11_"  style="overflow:visible;"/>
				</clipPath>
				<g class="st9">
					<rect x="1331" y="183.3" class="st2" width="29.6" height="33.2"/>
					<rect x="1331" y="183.3" class="st8" width="29.6" height="33.2"/>
				</g>
			</g>
			<g>
				<defs>
					<path id="SVGID_13_" d="M1369.7,186.5v-7.6h-6.8c0,0-2.4,0-2.4-2.3v-10.1c0,0,0-2.3,2.4-2.3h24c0,0,2.4,0,2.4,2.3v10.1
						c0,0,0,2.3-2.4,2.3h-10.1L1369.7,186.5z"/>
				</defs>
				<clipPath id="SVGID_14_">
					<use xlink:href="#SVGID_13_"  style="overflow:visible;"/>
				</clipPath>
				<g class="st10">
					<rect x="1360.6" y="150.1" class="st2" width="29.6" height="33.2"/>
					<rect x="1360.6" y="150.1" class="st8" width="29.6" height="33.2"/>
				</g>
			</g>
			<g>
				<defs>
					<path id="SVGID_15_" d="M1369.7,186.5v-7.6h-6.8c0,0-2.4,0-2.4-2.3v-10.1c0,0,0-2.3,2.4-2.3h24c0,0,2.4,0,2.4,2.3v10.1
						c0,0,0,2.3-2.4,2.3h-10.1L1369.7,186.5z"/>
				</defs>
				<clipPath id="SVGID_16_">
					<use xlink:href="#SVGID_15_"  style="overflow:visible;"/>
				</clipPath>
				<g class="st11">
					<rect x="1360.6" y="183.3" class="st2" width="29.6" height="33.2"/>
					<rect x="1360.6" y="183.3" class="st8" width="29.6" height="33.2"/>
				</g>
			</g>
		</g>
		<path d="M1369.7,188c-0.2,0-0.4,0-0.5-0.1c-0.6-0.2-0.9-0.8-0.9-1.3v-6.2h-5.3c-0.2,0-1,0-1.8-0.4c-1.3-0.6-2.1-1.8-2.1-3.3v-10.1
			c0-1.5,1-3.8,3.9-3.8h24c0.2,0,1,0,1.8,0.4c1.3,0.6,2.1,1.8,2.1,3.3v10.1c0,1.5-1,3.8-3.9,3.8h-9.5l-6.7,7.2
			C1370.5,187.8,1370.1,188,1369.7,188z M1363,177.4h6.7c0.8,0,1.5,0.6,1.5,1.5v3.9l4.6-4.9c0.3-0.3,0.7-0.5,1.1-0.5h10.1
			c0.3,0,0.9,0,1-0.9v-10.1c0-0.4-0.2-0.6-0.3-0.7c-0.3-0.1-0.6-0.2-0.7-0.2h-24c-0.3,0-0.9,0-1,0.9v10.1c0,0.4,0.2,0.6,0.3,0.7
			C1362.6,177.4,1362.9,177.4,1363,177.4z"/>
	</g>
	<g>
		<path d="M1382.1,173.6c-1,0-1.9-0.8-1.9-1.9s0.8-1.9,1.9-1.9c1,0,1.9,0.8,1.9,1.9S1383.1,173.6,1382.1,173.6"/>
	</g>
	<g>
		<path d="M1375,173.6c-1,0-1.9-0.8-1.9-1.9s0.8-1.9,1.9-1.9c1,0,1.9,0.8,1.9,1.9S1376,173.6,1375,173.6"/>
	</g>
	<g>
		<path d="M1367.9,173.6c-1,0-1.9-0.8-1.9-1.9s0.8-1.9,1.9-1.9s1.9,0.8,1.9,1.9S1369,173.6,1367.9,173.6"/>
	</g>
	<g>
		<rect x="1382.4" y="195.2" class="st0" width="67.3" height="52.6"/>
		<path d="M1449.7,249.2h-67.3c-0.8,0-1.5-0.6-1.5-1.5v-52.6c0-0.8,0.6-1.5,1.5-1.5h67.3c0.8,0,1.5,0.6,1.5,1.5v52.6
			C1451.1,248.6,1450.5,249.2,1449.7,249.2z M1383.8,246.3h64.4v-49.7h-64.4V246.3z"/>
	</g>
	<g>
		<path d="M1404.8,239.7c-0.4,0-0.8-0.1-1-0.4l-6.7-6.9c-0.6-0.6-0.5-1.5,0-2.1c0.6-0.6,1.5-0.5,2.1,0l6.7,6.9
			c0.6,0.6,0.5,1.5,0,2.1C1405.5,239.6,1405.1,239.7,1404.8,239.7z"/>
	</g>
	<g>
		<path d="M1398,239.7c-0.4,0-0.7-0.1-1-0.4c-0.6-0.6-0.6-1.5,0-2.1l6.7-6.9c0.6-0.6,1.5-0.6,2.1,0c0.6,0.6,0.6,1.5,0,2.1l-6.7,6.9
			C1398.8,239.6,1398.4,239.7,1398,239.7z"/>
	</g>
	<g>
		<g>
			<g>
				<defs>
					<rect id="SVGID_17_" x="1430.6" y="229" width="11.5" height="11.5"/>
				</defs>
				<clipPath id="SVGID_18_">
					<use xlink:href="#SVGID_17_"  style="overflow:visible;"/>
				</clipPath>
				<g class="st12">
					<rect x="1427" y="207.4" class="st2" width="22.7" height="25.4"/>
					<rect x="1427" y="207.4" class="st3" width="22.7" height="25.4"/>
				</g>
			</g>
			<g>
				<defs>
					<rect id="SVGID_19_" x="1430.6" y="229" width="11.5" height="11.5"/>
				</defs>
				<clipPath id="SVGID_20_">
					<use xlink:href="#SVGID_19_"  style="overflow:visible;"/>
				</clipPath>
				<g class="st13">
					<rect x="1427" y="232.8" class="st2" width="22.7" height="25.4"/>
					<rect x="1427" y="232.8" class="st3" width="22.7" height="25.4"/>
				</g>
			</g>
		</g>
		<path d="M1442.1,242h-11.5c-0.8,0-1.5-0.6-1.5-1.5V229c0-0.8,0.6-1.5,1.5-1.5h11.5c0.8,0,1.5,0.6,1.5,1.5v11.5
			C1443.5,241.3,1442.9,242,1442.1,242z M1432.1,239.1h8.6v-8.6h-8.6V239.1z"/>
	</g>
	<g>
		<path d="M1414.8,234.5c-0.1,0-0.1,0-0.2,0c-0.8-0.1-1.4-0.8-1.3-1.6c0-0.2,0.7-4.8,3.4-9.5c3.7-6.3,9.6-9.7,16.9-9.7
			c0.8,0,1.5,0.6,1.5,1.5s-0.6,1.5-1.5,1.5c-6.3,0-11.2,2.8-14.4,8.3c-2.5,4.2-3,8.4-3.1,8.4
			C1416.1,233.9,1415.5,234.5,1414.8,234.5z"/>
	</g>
	<g>
		<path d="M1432,221c-0.4,0-0.7-0.1-1-0.4c-0.6-0.6-0.6-1.5,0-2.1l3.3-3.3l-3.3-3.3c-0.6-0.6-0.6-1.5,0-2.1c0.6-0.6,1.5-0.6,2.1,0
			l4.3,4.3c0.6,0.6,0.6,1.5,0,2.1l-4.3,4.3C1432.8,220.8,1432.4,221,1432,221z"/>
	</g>
	<g>
		<path d="M1397.4,219.9c-4.3,0-7.8-3.5-7.8-7.8c0-4.3,3.5-7.8,7.8-7.8c4.3,0,7.8,3.5,7.8,7.8
			C1405.2,216.4,1401.7,219.9,1397.4,219.9z M1397.4,207.2c-2.7,0-4.9,2.2-4.9,4.9c0,2.7,2.2,4.9,4.9,4.9c2.7,0,4.9-2.2,4.9-4.9
			C1402.3,209.4,1400.1,207.2,1397.4,207.2z"/>
	</g>
	<g>
		<rect x="1411.5" y="165.9" class="st0" width="61.2" height="38.6"/>
		<path d="M1472.6,206h-61.2c-0.8,0-1.5-0.6-1.5-1.5v-38.6c0-0.8,0.6-1.5,1.5-1.5h61.2c0.8,0,1.5,0.6,1.5,1.5v38.6
			C1474.1,205.4,1473.5,206,1472.6,206z M1412.9,203.1h58.3v-35.7h-58.3V203.1z"/>
	</g>
	<g>
		<path d="M1442.2,198.4h-22.9c-0.8,0-1.5-0.6-1.5-1.5V174c0-0.8,0.6-1.5,1.5-1.5h22.9c0.8,0,1.5,0.6,1.5,1.5v22.9
			C1443.6,197.7,1443,198.4,1442.2,198.4z M1420.7,195.5h20v-20h-20V195.5z"/>
	</g>
	<g>
		<g>
			<g>
				<defs>
					<rect id="SVGID_21_" x="1449.8" y="187.5" width="14.8" height="9.4"/>
				</defs>
				<clipPath id="SVGID_22_">
					<use xlink:href="#SVGID_21_"  style="overflow:visible;"/>
				</clipPath>
				<g class="st14">
					<rect x="1449.7" y="181.9" class="st2" width="22.7" height="25.4"/>
					<rect x="1449.7" y="181.9" class="st8" width="22.7" height="25.4"/>
				</g>
			</g>
		</g>
		<path d="M1464.6,198.4h-14.8c-0.8,0-1.5-0.6-1.5-1.5v-9.4c0-0.8,0.6-1.5,1.5-1.5h14.8c0.8,0,1.5,0.6,1.5,1.5v9.4
			C1466.1,197.7,1465.5,198.4,1464.6,198.4z M1451.3,195.5h11.9V189h-11.9V195.5z"/>
	</g>
	<g>
		<path d="M1442.2,198.4c-0.4,0-0.7-0.1-1-0.4l-22.9-22.9c-0.6-0.6-0.6-1.5,0-2.1s1.5-0.6,2.1,0l22.9,22.9c0.6,0.6,0.6,1.5,0,2.1
			C1442.9,198.3,1442.6,198.4,1442.2,198.4z"/>
	</g>
	<g>
		<path d="M1419.3,198.4c-0.4,0-0.7-0.1-1-0.4c-0.6-0.6-0.6-1.5,0-2.1l22.9-22.9c0.6-0.6,1.5-0.6,2.1,0c0.6,0.6,0.6,1.5,0,2.1
			l-22.9,22.9C1420,198.3,1419.6,198.4,1419.3,198.4z"/>
	</g>
	<g>
		<path d="M1464.4,182.2h-14.6c-0.8,0-1.5-0.6-1.5-1.5s0.6-1.5,1.5-1.5h14.6c0.8,0,1.5,0.6,1.5,1.5S1465.2,182.2,1464.4,182.2z"/>
	</g>
</g>
</svg>
