<?xml version="1.0" encoding="utf-8"?>
<!-- Generator: Adobe Illustrator 18.0.0, SVG Export Plug-In . SVG Version: 6.00 Build 0)  -->
<!DOCTYPE svg PUBLIC "-//W3C//DTD SVG 1.1//EN" "http://www.w3.org/Graphics/SVG/1.1/DTD/svg11.dtd">
<svg version="1.1" id="Layer_1" xmlns="http://www.w3.org/2000/svg" xmlns:xlink="http://www.w3.org/1999/xlink" x="0px" y="0px"
	 viewBox="720 467 240 116" enable-background="new 720 467 240 116" xml:space="preserve">
<g>
	<g>
		<path d="M916.3,582.8H759.5c-1,0-1.8-0.8-1.8-1.8V468.9c0-1,0.8-1.8,1.8-1.8h141.4c1,0,1.8,0.8,1.8,1.8s-0.8,1.8-1.8,1.8H761.3
			v108.7h153.3v-94.9c0-1,0.8-1.8,1.8-1.8s1.8,0.8,1.8,1.8v96.6C918.1,582,917.3,582.8,916.3,582.8z"/>
	</g>
</g>
<g>
	<path d="M838,582.8c-1,0-1.8-0.8-1.8-1.8V468.9c0-1,0.8-1.8,1.8-1.8s1.8,0.8,1.8,1.8v112.2C839.8,582,839,582.8,838,582.8z"/>
</g>
<g>
	<rect x="838" y="468.9" fill="#ADD6FA" width="78.3" height="15.2"/>
	<path d="M916.3,485.8H838c-1,0-1.8-0.8-1.8-1.8v-15.2c0-1,0.8-1.8,1.8-1.8h78.3c1,0,1.8,0.8,1.8,1.8v15.2
		C918.1,485,917.3,485.8,916.3,485.8z M839.7,482.3h74.8v-11.7h-74.8V482.3z"/>
</g>
<g>
	<rect x="759.5" y="468.9" fill="#E4F1FD" width="78.3" height="15.2"/>
	<path d="M839.6,485.8h-81.8v-18.7h81.8V485.8z M761.3,482.3h74.8v-11.7h-74.8V482.3z"/>
</g>
<g>
	<circle cx="847.9" cy="476.5" r="1.9"/>
</g>
<g>
	<circle cx="857" cy="476.5" r="1.9"/>
</g>
<g>
	<circle cx="866.2" cy="476.5" r="1.9"/>
</g>
<g>
	<path d="M771.8,582.6c-1,0-1.8-0.8-1.8-1.8v-96.6c0-1,0.8-1.8,1.8-1.8s1.8,0.8,1.8,1.8v96.6C773.6,581.8,772.8,582.6,771.8,582.6z"
		/>
</g>
<g>
	<path d="M794,498.9h-12.7c-1,0-1.8-0.8-1.8-1.8s0.8-1.8,1.8-1.8H794c1,0,1.8,0.8,1.8,1.8S794.9,498.9,794,498.9z"/>
</g>
<g>
	<path d="M800.3,507.5h-19c-1,0-1.8-0.8-1.8-1.8s0.8-1.8,1.8-1.8h19c1,0,1.8,0.8,1.8,1.8S801.3,507.5,800.3,507.5z"/>
</g>
<g>
	<path fill="#ADD6FA" d="M816.2,507.5h-10.5c-1,0-1.8-0.8-1.8-1.8s0.8-1.8,1.8-1.8h10.5c1,0,1.8,0.8,1.8,1.8
		S817.2,507.5,816.2,507.5z"/>
</g>
<g>
	<path fill="#ADD6FA" d="M804.3,515.9H793c-1,0-1.8-0.8-1.8-1.8s0.8-1.8,1.8-1.8h11.3c1,0,1.8,0.8,1.8,1.8S805.3,515.9,804.3,515.9z
		"/>
</g>
<g>
	<path d="M827.8,515.9h-18.4c-1,0-1.8-0.8-1.8-1.8s0.8-1.8,1.8-1.8h18.4c1,0,1.8,0.8,1.8,1.8S828.8,515.9,827.8,515.9z"/>
</g>
<g>
	<path d="M827.8,507.5h-6.3c-1,0-1.8-0.8-1.8-1.8s0.8-1.8,1.8-1.8h6.3c1,0,1.8,0.8,1.8,1.8S828.8,507.5,827.8,507.5z"/>
</g>
<g>
	<path d="M787.6,515.9h-6.3c-1,0-1.8-0.8-1.8-1.8s0.8-1.8,1.8-1.8h6.3c1,0,1.8,0.8,1.8,1.8S788.6,515.9,787.6,515.9z"/>
</g>
<g>
	<path d="M781.3,529.4c-1,0-1.8-0.8-1.8-1.8s0.8-1.8,1.8-1.8l12.7,0c1,0,1.8,0.8,1.8,1.8s-0.8,1.8-1.8,1.8L781.3,529.4z"/>
</g>
<g>
	<path fill="#ADD6FA" d="M800.3,538h-19c-1,0-1.8-0.8-1.8-1.8s0.8-1.8,1.8-1.8h19c1,0,1.8,0.8,1.8,1.8S801.3,538,800.3,538z"/>
</g>
<g>
	<path d="M816.2,538h-10.5c-1,0-1.8-0.8-1.8-1.8s0.8-1.8,1.8-1.8h10.5c1,0,1.8,0.8,1.8,1.8S817.2,538,816.2,538z"/>
</g>
<g>
	<path d="M804.3,546.4H793c-1,0-1.8-0.8-1.8-1.8s0.8-1.8,1.8-1.8h11.3c1,0,1.8,0.8,1.8,1.8S805.3,546.4,804.3,546.4z"/>
</g>
<g>
	<path fill="#ADD6FA" d="M827.8,546.4h-18.4c-1,0-1.8-0.8-1.8-1.8s0.8-1.8,1.8-1.8h18.4c1,0,1.8,0.8,1.8,1.8
		S828.8,546.4,827.8,546.4z"/>
</g>
<g>
	<path d="M827.8,538h-6.3c-1,0-1.8-0.8-1.8-1.8s0.8-1.8,1.8-1.8h6.3c1,0,1.8,0.8,1.8,1.8S828.8,538,827.8,538z"/>
</g>
<g>
	<path d="M787.6,546.4h-6.3c-1,0-1.8-0.8-1.8-1.8s0.8-1.8,1.8-1.8h6.3c1,0,1.8,0.8,1.8,1.8S788.6,546.4,787.6,546.4z"/>
</g>
<g>
	<path d="M906.1,516.5h-58.2c-1,0-1.8-0.8-1.8-1.8v-18.9c0-1,0.8-1.8,1.8-1.8h58.2c1,0,1.8,0.8,1.8,1.8v18.9
		C907.9,515.7,907.1,516.5,906.1,516.5z M849.6,513h54.7v-15.4h-54.7V513z"/>
</g>
<g>
	<path d="M906.1,571.2h-58.2c-1,0-1.8-0.8-1.8-1.8v-18.9c0-1,0.8-1.8,1.8-1.8h58.2c1,0,1.8,0.8,1.8,1.8v18.9
		C907.9,570.4,907.1,571.2,906.1,571.2z M849.6,567.7h54.7v-15.4h-54.7V567.7z"/>
</g>
<g>
	<rect x="871.2" y="523.1" fill="#E4F1FD" width="45.1" height="18.9"/>
	<path d="M916.2,543.7h-45.1c-1,0-1.8-0.8-1.8-1.8v-18.9c0-1,0.8-1.8,1.8-1.8h45.1c1,0,1.8,0.8,1.8,1.8V542
		C918,543,917.2,543.7,916.2,543.7z M872.9,540.2h41.6v-15.4h-41.6V540.2z"/>
</g>
<g>
	<g>
		<path d="M929.2,543.6h-4c-1,0-1.8-0.8-1.8-1.8s0.8-1.8,1.8-1.8h2.2v-2.2c0-1,0.8-1.8,1.8-1.8s1.8,0.8,1.8,1.8v4
			C931,542.8,930.2,543.6,929.2,543.6z"/>
	</g>
	<g>
		<path d="M920.3,543.6h-4c-1,0-1.8-0.8-1.8-1.8v-4c0-1,0.8-1.8,1.8-1.8s1.8,0.8,1.8,1.8v2.2h2.2c1,0,1.8,0.8,1.8,1.8
			S921.3,543.6,920.3,543.6z"/>
	</g>
	<g>
		<path d="M916.3,528.6c-1,0-1.8-0.8-1.8-1.8v-4c0-1,0.8-1.8,1.8-1.8h4c1,0,1.8,0.8,1.8,1.8s-0.8,1.8-1.8,1.8h-2.2v2.3
			C918.1,527.9,917.3,528.6,916.3,528.6z"/>
	</g>
	<g>
		<path d="M929.2,528.6c-1,0-1.8-0.8-1.8-1.8v-2.3h-2.2c-1,0-1.8-0.8-1.8-1.8s0.8-1.8,1.8-1.8h4c1,0,1.8,0.8,1.8,1.8v4
			C931,527.9,930.2,528.6,929.2,528.6z"/>
	</g>
</g>
<g>
	<polygon fill="#FFFFFF" points="899.8,543.7 898.5,530.4 910.3,536.5 907,538.8 910.8,544.3 907.1,546.7 903.4,541.3 	"/>
	<path d="M907.1,548.5c-0.6,0-1.1-0.3-1.4-0.8l-2.8-4l-2.2,1.4c-0.5,0.3-1.2,0.4-1.7,0.1c-0.6-0.3-0.9-0.8-1-1.4l-1.2-13.3
		c-0.1-0.6,0.2-1.3,0.8-1.6c0.5-0.4,1.2-0.4,1.8-0.1l11.8,6.2c0.5,0.3,0.9,0.8,0.9,1.4c0,0.6-0.2,1.2-0.8,1.5l-1.9,1.3l2.8,4
		c0.3,0.4,0.4,0.9,0.3,1.3c-0.1,0.5-0.4,0.9-0.7,1.1l-3.7,2.5C907.8,548.4,907.5,548.5,907.1,548.5z M903.4,539.5
		c0.6,0,1.1,0.3,1.4,0.8l2.8,4l0.8-0.5l-2.8-4c-0.3-0.4-0.4-0.9-0.3-1.3c0.1-0.5,0.3-0.9,0.7-1.1l0.9-0.6l-6.4-3.3l0.7,7.2l1.2-0.8
		C902.7,539.6,903,539.5,903.4,539.5z"/>
</g>
<g>
	<path d="M880.3,538.3c-0.5,0-0.9-0.2-1.2-0.5l-2.8-2.8c-0.7-0.7-0.7-1.8,0-2.5c0.7-0.7,1.8-0.7,2.5,0l1.3,1.3l4-5.8
		c0.5-0.8,1.6-1,2.4-0.5c0.8,0.5,1,1.6,0.5,2.4l-5.2,7.6c-0.3,0.4-0.8,0.7-1.3,0.8C880.4,538.3,880.3,538.3,880.3,538.3z"/>
</g>
</svg>
