<svg version="1.1" xmlns="http://www.w3.org/2000/svg" xmlns:xlink="http://www.w3.org/1999/xlink" width="32" height="32" viewBox="0 0 32 32"><path d="M0 16C0 7.163 7.163 0 16 0s16 7.163 16 16-7.163 16-16 16S0 24.837 0 16" fill="#222"/><path d="M21.616 20.276c-.547-.43-1.673-1.418-2.019-1.865 1.761-5.563-1.186-10.022-1.186-10.022-.572-.992-1.806-2.496-2.44-3.065-.519.57-1.848 2.073-2.42 3.065 0 0-2.944 4.46-1.183 10.022-.345.447-1.52 1.435-2.069 1.865-.187.147-.376.362-.376.59V25.5h1.068l2.075-4.107c.14-.059.304.408.353.543.117.328 1.485 1.564 1.523 2.564h2.115c.038-1 1.407-2.112 1.524-2.44.048-.135.212-.624.352-.565l2.075 4.005h.915v-4.635a.763.763 0 0 0-.307-.589" fill="#FFF"/><path d="M14.476 11.355a1.5 1.5 0 1 1 3 .001 1.5 1.5 0 0 1-3-.001" fill="#222"/></svg>
