<svg version="1.1" xmlns="http://www.w3.org/2000/svg" xmlns:xlink="http://www.w3.org/1999/xlink" width="32" height="32" viewBox="0 0 32 32"><path fill="#222222" d="M12.389 16.613l3.61 3.599 3.611-3.599c0 0 1.203-1.126 1.203-2.408 0-1.806-1.169-2.419-2.396-2.419-1.225 0-2.418 1.471-2.418 1.471s-1.192-1.471-2.418-1.471c-1.225 0-2.396 0.613-2.396 2.419 0 1.283 1.205 2.408 1.205 2.408zM16 0c-8.836 0-16 7.163-16 16 0 8.836 7.164 16 16 16s16-7.164 16-16c0-8.837-7.164-16-16-16zM23.711 20.401h-3.461v3.313h-11.962v-15.424h15.423v12.111z"></path></svg>
