<svg version="1.1" xmlns="http://www.w3.org/2000/svg" xmlns:xlink="http://www.w3.org/1999/xlink" width="32" height="32" viewBox="0 0 32 32"><path fill="#222222" d="M8.685 10.438l0.026 0.031c1.147 0.639 3.351 1.384 7.409 1.384 3.85 0 5.961-0.671 7.090-1.284l0.083-0.105c-0.786-0.55-2.828-1.53-7.411-1.53-4.544 0.001-6.469 0.96-7.196 1.504zM16 0c-8.836 0-16 7.164-16 16s7.164 16 16 16 16-7.164 16-16-7.164-16-16-16zM25.051 10.916l-6.642 8.115v5.312c0 0.453-0.369 0.823-0.823 0.823h-3.579c-0.454 0-0.824-0.369-0.824-0.823v-5.805l-6.234-7.622c-0.209-0.255-0.246-0.611-0.093-0.902 0.146-0.278 1.637-2.723 9.025-2.723 7.346 0 9.060 2.395 9.23 2.668 0.188 0.3 0.163 0.685-0.060 0.957z"></path></svg>
